<svg width="215" height="169" viewBox="0 0 215 169" fill="none" xmlns="http://www.w3.org/2000/svg">
<path fill-rule="evenodd" clip-rule="evenodd" d="M116.817 118.829C147.179 113.692 167.564 85.0187 162.349 54.7847C157.134 24.5507 128.293 4.2053 97.9323 9.34202C67.5712 14.4787 47.1862 43.1524 52.4011 73.3864C54.1748 83.6692 58.6812 92.8081 65.0508 100.19C65.0613 100.138 65.0904 100.099 65.1395 100.073C65.409 99.9303 67.7795 98.8427 71.3464 97.206C84.1477 91.3323 112.36 78.3873 114.178 76.6918C116.503 74.5239 112.98 51.9981 109.365 33.1413C114.118 28.9629 120.709 25.8983 127.701 24.7154C132.945 23.8281 133.837 29.0009 133.837 29.0009L139.432 66.6518C139.176 74.7722 134.961 79.5972 118.957 88.7492L75.6862 109.725C87.2639 117.704 101.856 121.36 116.817 118.829Z" fill="url(#paint0_linear_530_622)"/>
<path d="M18.8659 145.247L21.7773 145.247C22.9031 145.247 23.466 146.044 23.466 147.638L23.466 147.734C23.466 148.356 22.6896 152.374 21.1368 159.788C20.1955 161.829 17.9634 162.85 14.4406 162.85L4.4937e-09 162.85L4.46928e-09 162.754C1.35866 161.319 2.03799 160.075 2.03799 159.023L2.21267 158.736L7.27852 158.736C7.31734 158.736 7.33675 158.768 7.33675 158.832L7.45321 158.736L15.6634 158.736C16.1001 158.736 16.4883 157.46 16.8279 154.909C17.0997 153.665 17.7402 150.476 18.7495 145.342L18.8659 145.247Z" fill="black"/>
<path d="M28.3338 145.247L43.939 145.247C45.0647 145.247 45.6276 146.044 45.6276 147.638L45.6276 147.734C45.6276 148.356 44.8512 152.374 43.2985 159.788C42.3571 161.829 40.125 162.85 36.6022 162.85L28.9743 162.85C26.3444 162.85 24.7528 161.989 24.1996 160.267L24.1414 159.597C25.6942 151.274 26.5482 146.809 26.7034 146.203C27.0722 145.565 27.6157 145.247 28.3338 145.247ZM29.5566 158.736L37.825 158.736C38.252 158.736 38.6402 157.46 38.9896 154.909C39.0672 154.702 39.436 152.82 40.0959 149.265L31.8858 149.265C31.4588 149.265 31.1482 150.126 30.9541 151.848C30.9153 151.848 30.4495 154.144 29.5566 158.736Z" fill="black"/>
<path d="M47.3803 145.247L52.7955 145.247C55.212 147.877 56.5318 149.344 56.755 149.647C59.4141 146.713 60.8504 145.247 61.0639 145.247L68.8083 145.247L68.8083 145.438C60.3263 153.57 52.5432 161.287 45.4587 168.59L45.4005 168.59L45.4005 168.494C46.3613 165.528 48.1081 161.797 50.6411 157.301C50.6896 157.301 51.2525 156.472 52.3297 154.813L54.193 152.422L47.3803 145.438L47.3803 145.247Z" fill="black"/>
<path d="M68.6976 145.247L89.8927 145.247C91.494 145.247 92.5421 146.203 93.037 148.117C93.1146 148.372 93.1535 148.723 93.1535 149.169L93.1535 149.743C91.4454 158.337 90.5332 162.706 90.4167 162.85L85.4091 162.85C85.3315 162.85 85.2927 162.786 85.2927 162.658C87.0007 154.558 87.8547 150.253 87.8547 149.743C87.8547 149.233 87.6994 148.978 87.3889 148.978L84.0699 148.978C82.2454 157.97 81.2749 162.594 81.1585 162.85L76.1508 162.85C76.0732 162.85 76.0344 162.786 76.0344 162.658C77.6648 154.829 78.5964 150.269 78.8293 148.978L74.6951 148.978C72.8706 157.97 71.9002 162.594 71.7837 162.85L66.7761 162.85C66.6985 162.85 66.6596 162.786 66.6596 162.658C68.29 154.861 69.2799 149.982 69.6293 148.021L69.6293 147.925C69.6293 147.08 69.3187 146.219 68.6976 145.342L68.6976 145.247Z" fill="black"/>
<path d="M95.4302 145.247L111.792 145.247C113.432 145.247 114.5 146.267 114.995 148.308C115.034 148.738 115.053 149.089 115.053 149.36C115.053 150.604 114.199 155.1 112.491 162.85L107.309 162.85L107.192 162.754C107.891 159.645 108.299 157.731 108.415 157.014L99.9138 157.014C99.8361 157.014 99.4673 158.736 98.8074 162.18C98.7007 162.626 98.623 162.85 98.5745 162.85L93.3922 162.85C95.3331 153.299 96.3036 148.42 96.3036 148.212L96.3036 147.256C96.3036 146.634 96.0125 146.028 95.4302 145.438L95.4302 145.247ZM100.554 153.378L109.114 153.378C109.541 151.29 109.754 150.142 109.754 149.934L109.754 149.647C109.754 149.201 109.618 148.978 109.347 148.978L101.894 148.978C101.476 148.978 101.166 149.839 100.962 151.561C100.933 151.561 100.797 152.167 100.554 153.378Z" fill="black"/>
<path d="M116.922 145.247L134.565 145.247L134.565 145.342C133.187 147.766 131.382 148.978 129.15 148.978L126.239 162.85L121.173 162.85L121.056 162.754L123.91 148.978L123.793 148.978C120.824 148.978 118.533 147.766 116.922 145.342L116.922 145.247Z" fill="black"/>
<path d="M135.183 145.247L152.826 145.247L152.826 145.342C151.477 147.766 149.633 148.978 147.294 148.978L142.112 148.978C141.481 148.978 141.073 149.902 140.889 151.752C140.035 155.643 139.608 157.843 139.608 158.353C139.724 158.8 139.899 159.023 140.132 159.023L144.383 159.023C147.042 159.023 148.653 159.597 149.216 160.745C149.594 161.287 149.924 161.957 150.205 162.754L150.089 162.85L139.783 162.85C135.978 162.85 134.076 161.765 134.076 159.597C134.076 159.39 134.794 155.627 136.231 148.308L136.231 147.543C136.231 146.698 135.881 145.996 135.183 145.438L135.183 145.247Z" fill="black"/>
<path d="M155.452 145.247L160.518 145.247C160.595 145.263 160.634 145.326 160.634 145.438L159.295 152.23L165.991 152.23C166.845 147.718 167.33 145.39 167.447 145.247L172.454 145.247C172.532 145.263 172.571 145.326 172.571 145.438C170.513 156.025 169.368 161.829 169.135 162.85L163.953 162.85C163.875 162.85 163.837 162.786 163.837 162.658C164.458 159.724 164.904 157.46 165.176 155.866L158.538 155.866C157.645 160.522 157.16 162.85 157.082 162.85L151.842 162.85C154.132 151.114 155.335 145.247 155.452 145.247Z" fill="black"/>
<path d="M174.818 145.247L192.229 145.247L192.229 145.342C190.666 147.702 189.191 148.882 187.803 148.882L182.039 148.882C181.233 148.882 180.729 149.392 180.525 150.413L180.175 152.135L189.259 152.135L189.259 152.23C187.512 154.718 186.076 155.961 184.95 155.961L179.419 155.961C179.108 157.109 178.953 157.843 178.953 158.162L178.953 158.258C179.001 158.832 179.215 159.119 179.593 159.119L185.649 159.119C187.386 159.119 188.725 160.298 189.667 162.658L189.667 162.85L178.254 162.85C175.624 162.85 174.032 161.989 173.479 160.267L173.421 159.597C174.78 152.326 175.498 148.276 175.575 147.447C175.575 146.586 175.323 145.916 174.818 145.438L174.818 145.247Z" fill="black"/>
<path d="M193.108 145.247L210.052 145.247C211.139 145.247 212.013 146.108 212.673 147.83C212.75 148.436 212.789 148.914 212.789 149.265C212.789 150.397 212.498 151.768 211.916 153.378C210.722 155.1 208.723 155.961 205.918 155.961L205.918 156.057C207.374 157.508 209.451 160.378 212.149 164.667C213.274 166.852 213.837 167.968 213.837 168.016C213.992 168.335 214.07 168.526 214.07 168.59L214.012 168.59C207.18 161.941 202.036 157.731 198.581 155.961L197.766 155.961C197.689 155.961 197.32 157.683 196.66 161.128C196.446 162.132 196.291 162.706 196.194 162.85L191.186 162.85L191.07 162.754C192.196 157.524 193.186 152.645 194.04 148.117L194.04 147.543C194.04 146.889 193.729 146.155 193.108 145.342L193.108 145.247ZM198.581 152.135L207.083 152.135C207.354 150.795 207.49 150.03 207.49 149.839L207.49 149.552C207.49 149.105 207.354 148.882 207.083 148.882L200.445 148.882C199.639 148.882 199.135 149.392 198.931 150.413L198.581 152.135Z" fill="black"/>
<defs>
<linearGradient id="paint0_linear_530_622" x1="12.7729" y1="-46.9453" x2="155.481" y2="113.022" gradientUnits="userSpaceOnUse">
<stop stop-color="#4D0052"/>
<stop offset="1" stop-color="#F16A6F"/>
</linearGradient>
</defs>
</svg>
