<svg width="30" height="29" viewBox="0 0 30 29" fill="none" xmlns="http://www.w3.org/2000/svg">
<path d="M12.3251 23.217H1.65369" stroke="black" stroke-width="2" stroke-linecap="round" stroke-linejoin="round"/>
<path fill-rule="evenodd" clip-rule="evenodd" d="M28.5529 23.2173C28.5529 25.5825 26.6508 27.4999 24.3045 27.4999C21.9581 27.4999 20.056 25.5825 20.056 23.2173C20.056 20.8502 21.9581 18.9346 24.3045 18.9346C26.6508 18.9346 28.5529 20.8502 28.5529 23.2173Z" stroke="black" stroke-width="2" stroke-linecap="round" stroke-linejoin="round"/>
<path d="M17.8799 5.78293H28.553" stroke="black" stroke-width="2" stroke-linecap="round" stroke-linejoin="round"/>
<path fill-rule="evenodd" clip-rule="evenodd" d="M1.65308 5.78268C1.65308 8.14971 3.55516 10.0654 5.90152 10.0654C8.24788 10.0654 10.15 8.14971 10.15 5.78268C10.15 3.41741 8.24788 1.5 5.90152 1.5C3.55516 1.5 1.65308 3.41741 1.65308 5.78268Z" stroke="black" stroke-width="2" stroke-linecap="round" stroke-linejoin="round"/>
</svg>
