<svg width="20" height="20" viewBox="0 0 20 20" fill="none" xmlns="http://www.w3.org/2000/svg">
<path fill-rule="evenodd" clip-rule="evenodd" d="M7.591 0C4.74311 0 2.457 2.28647 2.457 5.134C2.457 7.98235 4.74293 10.269 7.591 10.269C10.4392 10.269 12.726 7.98221 12.726 5.134C12.726 2.28661 10.439 0 7.591 0ZM7.591 1.5C9.61066 1.5 11.226 3.11509 11.226 5.134C11.226 7.15379 9.61079 8.769 7.591 8.769C5.57146 8.769 3.957 7.15403 3.957 5.134C3.957 3.11484 5.57159 1.5 7.591 1.5ZM18.0667 5.1166C18.0667 2.88208 16.2546 1.0696 14.0197 1.0696C13.6055 1.0696 13.2697 1.40539 13.2697 1.8196C13.2697 2.23381 13.6055 2.5696 14.0197 2.5696C15.4261 2.5696 16.5667 3.71043 16.5667 5.1166C16.5667 6.52339 15.4265 7.6636 14.0197 7.6636C13.6055 7.6636 13.2697 7.99939 13.2697 8.4136C13.2697 8.82781 13.6055 9.1636 14.0197 9.1636C16.2549 9.1636 18.0667 7.35181 18.0667 5.1166ZM17.2991 11.494C16.7444 11.371 16.1673 11.2878 15.5867 11.2483C15.1734 11.2202 14.8156 11.5324 14.7875 11.9457C14.7594 12.359 15.0716 12.7168 15.4849 12.7449C15.9905 12.7793 16.4933 12.8518 16.9907 12.9619C17.7673 13.1165 18.2817 13.3734 18.4208 13.6653C18.5256 13.8858 18.5256 14.1444 18.4204 14.3656C18.2823 14.6564 17.7705 14.9128 17.0017 15.071C16.596 15.1544 16.3347 15.551 16.4182 15.9567C16.5016 16.3624 16.8982 16.6237 17.3039 16.5402C18.4987 16.2945 19.3728 15.8565 19.7752 15.0095C20.074 14.3808 20.074 13.6494 19.7752 13.0206C19.3705 12.1715 18.4872 11.7303 17.2991 11.494ZM0 15.5185C0 12.8939 2.75759 11.9565 7.591 11.9565L7.91078 11.9579C12.5552 11.9983 15.183 12.9363 15.183 15.4985C15.183 18.0064 12.6645 18.9738 8.22314 19.0549L7.591 19.0605C2.74666 19.0605 0 18.1396 0 15.5185ZM13.683 15.4985C13.683 14.1508 11.6124 13.4565 7.591 13.4565C3.57365 13.4565 1.5 14.1614 1.5 15.5185C1.5 16.8669 3.56868 17.5605 7.591 17.5605C11.6086 17.5605 13.683 16.8555 13.683 15.4985Z" fill="white"/>
</svg>
