<svg width="130" height="15" viewBox="0 0 130 15" fill="none" xmlns="http://www.w3.org/2000/svg">
<path d="M11.3731 0.397461H13.1283C13.8069 0.397461 14.1462 0.880856 14.1462 1.84765V1.90565C14.1462 2.2827 13.6782 4.71901 12.7421 9.21459C12.1746 10.4521 10.8291 11.0708 8.70539 11.0708H6.10352e-05V11.0128C0.81911 10.1427 1.22863 9.38861 1.22863 8.75053L1.33394 8.5765H4.38783C4.41123 8.5765 4.42293 8.59584 4.42293 8.63451L4.49313 8.5765H9.44253C9.7058 8.5765 9.93981 7.80307 10.1446 6.25621C10.3084 5.50211 10.6945 3.56853 11.3029 0.455468L11.3731 0.397461Z" fill="black"/>
<path d="M17.0807 0.397461H26.4881C27.1668 0.397461 27.5061 0.880856 27.5061 1.84765V1.90565C27.5061 2.2827 27.038 4.71901 26.102 9.21459C25.5345 10.4521 24.1889 11.0708 22.0653 11.0708H17.4669C15.8814 11.0708 14.922 10.5488 14.5885 9.50462L14.5534 9.09857C15.4895 4.05193 16.0043 1.34492 16.0979 0.977535C16.3202 0.590819 16.6478 0.397461 17.0807 0.397461ZM17.8179 8.5765H22.8024C23.0598 8.5765 23.2938 7.80307 23.5044 6.25621C23.5512 6.13053 23.7736 4.98971 24.1714 2.83377H19.222C18.9646 2.83377 18.7774 3.35584 18.6603 4.39997C18.6369 4.39997 18.3561 5.79215 17.8179 8.5765Z" fill="black"/>
<path d="M28.5627 0.397461H31.8271C33.2839 1.99266 34.0795 2.88211 34.2141 3.0658C35.8171 1.28691 36.6829 0.397461 36.8116 0.397461H41.4802V0.513476C36.367 5.44411 31.675 10.1234 27.4043 14.5513H27.3692V14.4933C27.9484 12.695 29.0014 10.4327 30.5284 7.70639C30.5576 7.70639 30.8969 7.20366 31.5463 6.1982L32.6696 4.74802L28.5627 0.513476V0.397461Z" fill="black"/>
<path d="M41.4135 0.397461H54.1907C55.156 0.397461 55.7878 0.977535 56.0862 2.13768C56.133 2.29237 56.1564 2.50506 56.1564 2.77576V3.12381C55.1268 8.33481 54.5768 10.9838 54.5066 11.0708H51.4878C51.441 11.0708 51.4176 11.0322 51.4176 10.9548C52.4473 6.04351 52.9621 3.43318 52.9621 3.12381C52.9621 2.81444 52.8685 2.65975 52.6813 2.65975H50.6805C49.5806 8.11245 48.9956 10.9161 48.9254 11.0708H45.9066C45.8598 11.0708 45.8364 11.0322 45.8364 10.9548C46.8193 6.20787 47.3809 3.44285 47.5213 2.65975H45.0291C43.9292 8.11245 43.3442 10.9161 43.2739 11.0708H40.2552C40.2084 11.0708 40.185 11.0322 40.185 10.9548C41.1678 6.2272 41.7646 3.26883 41.9752 2.07968V2.02167C41.9752 1.50927 41.788 0.987203 41.4135 0.455468V0.397461Z" fill="black"/>
<path d="M57.5289 0.397461H67.3926C68.3813 0.397461 69.0249 1.01621 69.3232 2.2537C69.3466 2.51473 69.3583 2.72742 69.3583 2.89178C69.3583 3.64588 68.8435 6.37222 67.8138 11.0708H64.6897L64.6195 11.0128C65.0408 9.12757 65.2865 7.96743 65.3567 7.53237H60.2318C60.185 7.53237 59.9627 8.5765 59.5648 10.6648C59.5005 10.9355 59.4537 11.0708 59.4244 11.0708H56.3003C57.4704 5.27975 58.0554 2.32137 58.0554 2.19569V1.61562C58.0554 1.23857 57.8799 0.871188 57.5289 0.513476V0.397461ZM60.6179 5.32809H65.7779C66.0353 4.0616 66.164 3.36551 66.164 3.23982V3.0658C66.164 2.7951 66.0821 2.65975 65.9183 2.65975H61.4253C61.1737 2.65975 60.9865 3.18182 60.8636 4.22595C60.8461 4.22595 60.7642 4.59333 60.6179 5.32809Z" fill="black"/>
<path d="M70.4851 0.397461H81.121V0.455468C80.2903 1.92499 79.2021 2.65975 77.8566 2.65975L76.1014 11.0708H73.0476L72.9774 11.0128L74.6974 2.65975H74.6272C72.8369 2.65975 71.4563 1.92499 70.4851 0.455468V0.397461Z" fill="black"/>
<path d="M81.4931 0.397461H92.1291V0.455468C91.3159 1.92499 90.2043 2.65975 88.7944 2.65975H85.6703C85.29 2.65975 85.0443 3.22049 84.9331 4.34196C84.4183 6.70093 84.1609 8.0351 84.1609 8.34448C84.2311 8.61518 84.3364 8.75053 84.4768 8.75053H87.0393C88.6423 8.75053 89.6134 9.09857 89.9527 9.79466C90.1809 10.1234 90.3798 10.5294 90.5495 11.0128L90.4793 11.0708H84.2662C81.9729 11.0708 80.8262 10.4134 80.8262 9.09857C80.8262 8.97289 81.2591 6.69126 82.125 2.2537V1.78964C82.125 1.27724 81.9144 0.851852 81.4931 0.513476V0.397461Z" fill="black"/>
<path d="M93.7122 0.397461H96.7661C96.8129 0.407129 96.8363 0.4458 96.8363 0.513476L96.0289 4.632H100.066C100.58 1.89599 100.873 0.484472 100.943 0.397461H103.962C104.009 0.407129 104.032 0.4458 104.032 0.513476C102.792 6.93296 102.102 10.4521 101.961 11.0708H98.8371C98.7903 11.0708 98.7669 11.0322 98.7669 10.9548C99.1413 9.17591 99.4104 7.80307 99.5742 6.83628H95.5726C95.0344 9.65931 94.7418 11.0708 94.695 11.0708H91.5358C92.9165 3.95525 93.642 0.397461 93.7122 0.397461Z" fill="black"/>
<path d="M105.387 0.397461H115.883V0.455468C114.941 1.88632 114.052 2.60174 113.215 2.60174H109.74C109.254 2.60174 108.95 2.91112 108.827 3.52986L108.617 4.57399H114.092V4.632C113.039 6.14019 112.174 6.89429 111.495 6.89429H108.16C107.973 7.59038 107.879 8.0351 107.879 8.22846V8.28647C107.909 8.63451 108.037 8.80853 108.266 8.80853H111.916C112.963 8.80853 113.771 9.52396 114.338 10.9548V11.0708H107.458C105.873 11.0708 104.913 10.5488 104.58 9.50462L104.545 9.09857C105.364 4.69001 105.797 2.23436 105.843 1.73163C105.843 1.20956 105.691 0.803513 105.387 0.513476V0.397461Z" fill="black"/>
<path d="M116.413 0.397461H126.627C127.283 0.397461 127.809 0.919528 128.207 1.96366C128.254 2.33104 128.277 2.62108 128.277 2.83377C128.277 3.52019 128.102 4.35163 127.751 5.32809C127.031 6.37222 125.826 6.89429 124.135 6.89429V6.9523C125.013 7.83208 126.265 9.5723 127.891 12.173C128.57 13.4975 128.909 14.1742 128.909 14.2032C129.003 14.3966 129.049 14.5126 129.049 14.5513H129.014C124.896 10.5198 121.795 7.96743 119.712 6.89429H119.221C119.174 6.89429 118.952 7.93842 118.554 10.0267C118.425 10.6358 118.332 10.9838 118.273 11.0708H115.254L115.184 11.0128C115.863 7.84174 116.46 4.88337 116.974 2.13768V1.78964C116.974 1.39325 116.787 0.948531 116.413 0.455468V0.397461ZM119.712 4.57399H124.837C125.001 3.76189 125.083 3.29783 125.083 3.18182V3.00779C125.083 2.73709 125.001 2.60174 124.837 2.60174H120.836C120.35 2.60174 120.046 2.91112 119.923 3.52986L119.712 4.57399Z" fill="black"/>
</svg>
