<svg width="49" height="49" viewBox="0 0 49 49" fill="none" xmlns="http://www.w3.org/2000/svg">
<path fill-rule="evenodd" clip-rule="evenodd" d="M27.5704 44.6094C38.9195 42.6706 46.5482 31.8986 44.6094 20.5495C42.6706 9.20029 31.8986 1.57166 20.5495 3.51042C9.20031 5.44919 1.57168 16.2212 3.51045 27.5704C4.17006 31.4316 5.85214 34.8622 8.23155 37.6319C8.23444 37.6097 8.24557 37.593 8.26569 37.5823C8.36646 37.5288 9.25276 37.1196 10.5864 36.504C15.3727 34.2945 25.9211 29.4252 26.6011 28.7881C27.4707 27.9734 26.1615 19.5179 24.8171 12.4399C26.5947 10.8696 29.0592 9.71693 31.6728 9.27045C33.633 8.93559 33.9647 10.8772 33.9647 10.8772L36.0428 25.0103C35.9444 28.059 34.3672 29.8718 28.3828 33.313L12.1997 41.2046C16.5243 44.1966 21.9772 45.5648 27.5704 44.6094Z" fill="url(#paint0_linear_1_13)"/>
<defs>
<linearGradient id="paint0_linear_1_13" x1="-11.2923" y1="-17.6055" x2="42.2841" y2="42.2024" gradientUnits="userSpaceOnUse">
<stop stop-color="#4D0052"/>
<stop offset="1" stop-color="#F16A6F"/>
</linearGradient>
</defs>
</svg>
