<svg width="25" height="24" viewBox="0 0 25 24" fill="none" xmlns="http://www.w3.org/2000/svg">
<path fill-rule="evenodd" clip-rule="evenodd" d="M0.999456 11.7847C-0.477691 6.95455 1.48749 1.89142 5.8934 0.398262C8.00215 -0.31575 10.284 -0.0588126 12.1933 1.08156L12.5093 1.28121L12.8311 1.08044C14.6413 0.00164351 16.7885 -0.286627 18.8092 0.298398L19.128 0.398336C23.5353 1.89195 25.5086 6.95749 24.0261 11.8044C23.2828 14.0591 22.0637 16.1033 20.4546 17.7883C18.2649 20.0267 15.8511 22.0035 13.2599 23.6807L12.9848 23.8607C12.7054 24.0435 12.3524 24.0466 12.0702 23.8688L11.7755 23.6831C9.18071 22.0035 6.76689 20.0267 4.56972 17.7805C2.96809 16.1033 1.74903 14.0591 0.999456 11.7847ZM11.9995 3.15192L11.7634 2.97368C10.1985 1.84772 8.23382 1.54519 6.43169 2.15539C3.0188 3.31201 1.47154 7.2984 2.66434 11.1995C3.32037 13.1894 4.39591 14.993 5.80083 16.4643C7.89835 18.6086 10.2104 20.502 12.6867 22.1049L12.5154 21.9912L13.0768 21.6196C15.0369 20.2874 16.8831 18.7757 18.5902 17.1057L19.2238 16.4721C20.6363 14.993 21.7118 13.1894 22.3616 11.2192C23.5595 7.30213 22.0055 3.31292 18.5908 2.15568C16.6986 1.51669 14.6331 1.88268 13.037 3.14039C12.7306 3.38187 12.3107 3.38653 11.9995 3.15192Z" fill="white"/>
</svg>
