<svg width="25" height="29" viewBox="0 0 25 29" fill="none" xmlns="http://www.w3.org/2000/svg">
<path fill-rule="evenodd" clip-rule="evenodd" d="M1.55417 16.8233V16.5386C1.59594 15.6963 1.86588 14.8802 2.33616 14.1745C3.11895 13.3267 3.65481 12.2878 3.88753 11.1668C3.88753 10.3004 3.88753 9.42155 3.96321 8.55513C4.3542 4.38394 8.47856 1.5 12.5525 1.5H12.6534C16.7273 1.5 20.8517 4.38394 21.2553 8.55513C21.3309 9.42155 21.2553 10.3004 21.3183 11.1668C21.5542 12.2904 22.0895 13.3325 22.8697 14.1869C23.3435 14.8864 23.6139 15.6995 23.6517 16.5386V16.8109C23.6798 17.9425 23.2901 19.0459 22.5544 19.9176C21.5821 20.9369 20.2628 21.5711 18.8462 21.7C14.6922 22.1456 10.501 22.1456 6.34701 21.7C4.93199 21.5655 3.61459 20.9323 2.63887 19.9176C1.9145 19.0452 1.53001 17.9484 1.55417 16.8233Z" stroke="black" stroke-width="2" stroke-linecap="round" stroke-linejoin="round"/>
<path d="M9.42456 26.0073C10.0736 26.822 11.0268 27.3492 12.073 27.4724C13.1193 27.5955 14.1725 27.3043 14.9994 26.6633C15.2537 26.4737 15.4826 26.2533 15.6805 26.0073" stroke="black" stroke-width="2" stroke-linecap="round" stroke-linejoin="round"/>
</svg>
