<svg width="23" height="27" viewBox="0 0 23 27" fill="none" xmlns="http://www.w3.org/2000/svg">
<circle cx="11.5059" cy="7.21681" r="6.21144" stroke="black" stroke-width="2" stroke-linecap="round" stroke-linejoin="round"/>
<path fill-rule="evenodd" clip-rule="evenodd" d="M1.6531 22.0673C1.65143 21.6306 1.74909 21.1993 1.93868 20.806C2.53365 19.616 4.21145 18.9854 5.60367 18.6998C6.60774 18.4855 7.62567 18.3424 8.64989 18.2714C10.5462 18.1048 12.4534 18.1048 14.3497 18.2714C15.3738 18.3432 16.3917 18.4863 17.3959 18.6998C18.7881 18.9854 20.4659 19.5565 21.0609 20.806C21.4422 21.6078 21.4422 22.5387 21.0609 23.3405C20.4659 24.5899 18.7881 25.1611 17.3959 25.4348C16.393 25.6579 15.3747 25.8051 14.3497 25.8751C12.8063 26.0059 11.2556 26.0298 9.70893 25.9465C9.35195 25.9465 9.00687 25.9465 8.64989 25.8751C7.6287 25.806 6.61429 25.6588 5.61557 25.4348C4.21145 25.1611 2.54555 24.5899 1.93868 23.3405C1.75005 22.9426 1.65249 22.5077 1.6531 22.0673Z" stroke="black" stroke-width="2" stroke-linecap="round" stroke-linejoin="round"/>
</svg>
