<svg width="19" height="21" viewBox="0 0 19 21" fill="none" xmlns="http://www.w3.org/2000/svg">
<path fill-rule="evenodd" clip-rule="evenodd" d="M10.1161 0.0605471H8.88106C8.1855 0.0605471 7.51861 0.332098 7.02796 0.815121C6.59307 1.24325 6.32704 1.80771 6.27575 2.40835L6.26724 2.60235C6.25775 3.23407 5.74742 3.72689 5.12101 3.72683C4.97895 3.72534 4.83141 3.69292 4.69559 3.63185L4.56235 3.56226C3.33155 2.87071 1.73128 3.29431 1.00918 4.5222L0.359895 5.5675C-0.330507 6.74103 0.0100074 8.21531 1.12449 8.97463L1.27948 9.07206C1.66149 9.28893 1.87987 9.65951 1.87987 10.0605C1.87987 10.4294 1.69491 10.7742 1.38645 10.9834L1.28115 11.048C0.126514 11.7018 -0.328427 13.1447 0.251966 14.345L0.33679 14.5047L0.974125 15.5829C1.30539 16.1689 1.87306 16.6102 2.54445 16.7972C3.13953 16.9629 3.7746 16.917 4.33762 16.669L4.51565 16.5819C4.81529 16.4121 5.12484 16.3715 5.41538 16.4476C5.70591 16.5238 5.95336 16.7105 6.1027 16.9663C6.18504 17.1024 6.23337 17.2428 6.25063 17.3882L6.25912 17.5359C6.25765 18.9098 7.43219 20.0605 8.88106 20.0605H10.1164C11.4845 20.0605 12.62 19.0309 12.731 17.702L12.7391 17.5303C12.7383 17.1984 12.8582 16.9129 13.0727 16.7028C13.2872 16.4926 13.5786 16.3752 13.882 16.3766C14.0214 16.3804 14.1746 16.4146 14.3166 16.4768L14.4527 16.5455C15.6011 17.1949 17.1058 16.8613 17.8808 15.7694L17.9803 15.6176L18.6399 14.541C18.995 13.9439 19.0912 13.2423 18.9119 12.5835C18.753 11.9997 18.3887 11.4903 17.8843 11.1446L17.7174 11.0398C17.4272 10.8755 17.236 10.6313 17.158 10.3449C17.08 10.0585 17.1218 9.75346 17.2742 9.49733C17.3585 9.35312 17.4706 9.23311 17.6051 9.14123L17.8624 8.98283C18.9043 8.28981 19.2945 6.92574 18.7461 5.77897L18.6892 5.66729C18.6769 5.63817 18.6627 5.60977 18.6465 5.58228L18.0333 4.53982C17.3511 3.37973 15.8759 2.92952 14.646 3.49604L14.4821 3.57893C14.1882 3.74742 13.8779 3.79001 13.5857 3.71568C13.2935 3.64136 13.0435 3.45622 12.8908 3.20109C12.8124 3.07171 12.7641 2.93134 12.7468 2.7859L12.7383 2.63821C12.7599 2.01023 12.4925 1.33735 11.9983 0.839258C11.5041 0.341162 10.8251 0.0602617 10.1161 0.0605471ZM8.88106 1.50829H10.1164C10.4264 1.50816 10.7229 1.63084 10.9387 1.84838C11.1546 2.06591 11.2713 2.35978 11.2624 2.66303L11.2756 2.91509C11.3203 3.30039 11.4357 3.63559 11.6181 3.93671C11.9673 4.5202 12.5423 4.94601 13.2143 5.11696C13.8863 5.28791 14.6001 5.18995 15.1983 4.8447L15.3015 4.7932L15.4125 4.74965C15.9009 4.58908 16.4764 4.7923 16.753 5.26263L17.3378 6.2578L17.3505 6.28584L17.4212 6.41938C17.6578 6.91559 17.4601 7.54325 16.948 7.83668L16.7873 7.93587C16.4464 8.16788 16.1849 8.4477 15.9946 8.77316C15.6471 9.35761 15.5509 10.0592 15.7302 10.7179C15.8932 11.3168 16.2716 11.8353 16.7922 12.1801L17.0645 12.3487C17.2566 12.4812 17.415 12.7027 17.4841 12.9566C17.5621 13.243 17.5203 13.548 17.368 13.8042L16.7236 14.8562L16.6511 14.9673C16.3529 15.3864 15.7647 15.542 15.2687 15.3287L14.9528 15.1706C14.6004 15.0152 14.2556 14.9383 13.9053 14.9291C13.1914 14.9256 12.5212 15.1957 12.0279 15.6791C11.5345 16.1624 11.2588 16.819 11.2621 17.5026L11.2565 17.6117C11.2099 18.1629 10.7137 18.6128 10.1164 18.6128H8.88106C8.29047 18.6128 7.80426 18.175 7.74205 17.6126L7.7219 17.259C7.67721 16.8737 7.56179 16.5385 7.37937 16.2374C7.04028 15.6565 6.46861 15.2251 5.79737 15.0491C5.12614 14.8731 4.41096 14.9671 3.8108 15.3102L3.70208 15.3624C3.48569 15.4569 3.20831 15.477 2.94842 15.4046C2.6552 15.3229 2.40728 15.1302 2.25952 14.869L1.63027 13.8054L1.57398 13.6989C1.33562 13.2045 1.53354 12.5768 2.04639 12.2861L2.20219 12.1902C2.93413 11.6946 3.35754 10.9051 3.35754 10.0605C3.35754 9.20349 2.92197 8.4072 2.20395 7.93155L1.94324 7.76979C1.48256 7.4552 1.33377 6.81099 1.63128 6.3051L2.28057 5.25979C2.6049 4.7087 3.3038 4.5237 3.8519 4.8314L4.04427 4.9308C4.40355 5.09347 4.75588 5.17089 5.11326 5.17453C6.49969 5.1747 7.63339 4.13142 7.73685 2.80205L7.75028 2.49716C7.77058 2.26795 7.88625 2.02251 8.07533 1.83637C8.28866 1.62636 8.57863 1.50829 8.88106 1.50829ZM9.50324 6.79237C7.66095 6.79237 6.16748 8.25558 6.16748 10.0605C6.16748 11.8655 7.66095 13.3287 9.50324 13.3287C11.3455 13.3287 12.839 11.8655 12.839 10.0605C12.839 8.25558 11.3455 6.79237 9.50324 6.79237ZM9.50324 8.24011C10.5294 8.24011 11.3613 9.05515 11.3613 10.0605C11.3613 11.0659 10.5294 11.881 9.50324 11.881C8.47705 11.881 7.64516 11.0659 7.64516 10.0605C7.64516 9.05515 8.47705 8.24011 9.50324 8.24011Z" fill="white"/>
</svg>
