<svg width="120" height="21" viewBox="0 0 120 21" fill="none" xmlns="http://www.w3.org/2000/svg">
<path fill-rule="evenodd" clip-rule="evenodd" d="M10.1161 0.0605471H8.88106C8.1855 0.0605471 7.51861 0.332098 7.02796 0.815121C6.59307 1.24325 6.32704 1.80771 6.27575 2.40835L6.26724 2.60235C6.25775 3.23407 5.74742 3.72689 5.12101 3.72683C4.97895 3.72534 4.83141 3.69292 4.69559 3.63185L4.56235 3.56226C3.33155 2.87071 1.73128 3.29431 1.00918 4.5222L0.359895 5.5675C-0.330507 6.74103 0.0100074 8.21531 1.12449 8.97463L1.27948 9.07206C1.66149 9.28893 1.87987 9.65951 1.87987 10.0605C1.87987 10.4294 1.69491 10.7742 1.38645 10.9834L1.28115 11.048C0.126514 11.7018 -0.328427 13.1447 0.251966 14.345L0.33679 14.5047L0.974125 15.5829C1.30539 16.1689 1.87306 16.6102 2.54445 16.7972C3.13953 16.9629 3.7746 16.917 4.33762 16.669L4.51565 16.5819C4.81529 16.4121 5.12484 16.3715 5.41538 16.4476C5.70591 16.5238 5.95336 16.7105 6.1027 16.9663C6.18504 17.1024 6.23337 17.2428 6.25063 17.3882L6.25912 17.5359C6.25765 18.9098 7.43219 20.0605 8.88106 20.0605H10.1164C11.4845 20.0605 12.62 19.0309 12.731 17.702L12.7391 17.5303C12.7383 17.1984 12.8582 16.9129 13.0727 16.7028C13.2872 16.4926 13.5786 16.3752 13.882 16.3766C14.0214 16.3804 14.1746 16.4146 14.3166 16.4768L14.4527 16.5455C15.6011 17.1949 17.1058 16.8613 17.8808 15.7694L17.9803 15.6176L18.6399 14.541C18.995 13.9439 19.0912 13.2423 18.9119 12.5835C18.753 11.9997 18.3887 11.4903 17.8843 11.1446L17.7174 11.0398C17.4272 10.8755 17.236 10.6313 17.158 10.3449C17.08 10.0585 17.1218 9.75346 17.2742 9.49733C17.3585 9.35312 17.4706 9.23311 17.6051 9.14123L17.8624 8.98283C18.9043 8.28981 19.2945 6.92574 18.7461 5.77897L18.6892 5.66729C18.6769 5.63817 18.6627 5.60977 18.6465 5.58228L18.0333 4.53982C17.3511 3.37973 15.8759 2.92952 14.646 3.49604L14.4821 3.57893C14.1882 3.74742 13.8779 3.79001 13.5857 3.71568C13.2935 3.64136 13.0435 3.45622 12.8908 3.20109C12.8124 3.07171 12.7641 2.93134 12.7468 2.7859L12.7383 2.63821C12.7599 2.01023 12.4925 1.33735 11.9983 0.839258C11.5041 0.341162 10.8251 0.0602617 10.1161 0.0605471ZM8.88106 1.50829H10.1164C10.4264 1.50816 10.7229 1.63084 10.9387 1.84838C11.1546 2.06591 11.2713 2.35978 11.2624 2.66303L11.2756 2.91509C11.3203 3.30039 11.4357 3.63559 11.6181 3.93671C11.9673 4.5202 12.5423 4.94601 13.2143 5.11696C13.8863 5.28791 14.6001 5.18995 15.1983 4.8447L15.3015 4.7932L15.4125 4.74965C15.9009 4.58908 16.4764 4.7923 16.753 5.26263L17.3378 6.2578L17.3505 6.28584L17.4212 6.41938C17.6578 6.91559 17.4601 7.54325 16.948 7.83668L16.7873 7.93587C16.4464 8.16788 16.1849 8.4477 15.9946 8.77316C15.6471 9.35761 15.5509 10.0592 15.7302 10.7179C15.8932 11.3168 16.2716 11.8353 16.7922 12.1801L17.0645 12.3487C17.2566 12.4812 17.415 12.7027 17.4841 12.9566C17.5621 13.243 17.5203 13.548 17.368 13.8042L16.7236 14.8562L16.6511 14.9673C16.3529 15.3864 15.7647 15.542 15.2687 15.3287L14.9528 15.1706C14.6004 15.0152 14.2556 14.9383 13.9053 14.9291C13.1914 14.9256 12.5212 15.1957 12.0279 15.6791C11.5345 16.1624 11.2588 16.819 11.2621 17.5026L11.2565 17.6117C11.2099 18.1629 10.7137 18.6128 10.1164 18.6128H8.88106C8.29047 18.6128 7.80426 18.175 7.74205 17.6126L7.7219 17.259C7.67721 16.8737 7.56179 16.5385 7.37937 16.2374C7.04028 15.6565 6.46861 15.2251 5.79737 15.0491C5.12614 14.8731 4.41096 14.9671 3.8108 15.3102L3.70208 15.3624C3.48569 15.4569 3.20831 15.477 2.94842 15.4046C2.6552 15.3229 2.40728 15.1302 2.25952 14.869L1.63027 13.8054L1.57398 13.6989C1.33562 13.2045 1.53354 12.5768 2.04639 12.2861L2.20219 12.1902C2.93413 11.6946 3.35754 10.9051 3.35754 10.0605C3.35754 9.20349 2.92197 8.4072 2.20395 7.93155L1.94324 7.76979C1.48256 7.4552 1.33377 6.81099 1.63128 6.3051L2.28057 5.25979C2.6049 4.7087 3.3038 4.5237 3.8519 4.8314L4.04427 4.9308C4.40355 5.09347 4.75588 5.17089 5.11326 5.17453C6.49969 5.1747 7.63339 4.13142 7.73685 2.80205L7.75028 2.49716C7.77058 2.26795 7.88625 2.02251 8.07533 1.83637C8.28866 1.62636 8.57863 1.50829 8.88106 1.50829ZM9.50324 6.79237C7.66095 6.79237 6.16748 8.25558 6.16748 10.0605C6.16748 11.8655 7.66095 13.3287 9.50324 13.3287C11.3455 13.3287 12.839 11.8655 12.839 10.0605C12.839 8.25558 11.3455 6.79237 9.50324 6.79237ZM9.50324 8.24011C10.5294 8.24011 11.3613 9.05515 11.3613 10.0605C11.3613 11.0659 10.5294 11.881 9.50324 11.881C8.47705 11.881 7.64516 11.0659 7.64516 10.0605C7.64516 9.05515 8.47705 8.24011 9.50324 8.24011Z" fill="black"/>
<path d="M60.635 15.1805C59.835 15.1805 59.07 15.0605 58.34 14.8205C57.61 14.5705 57.035 14.2505 56.615 13.8605L57.17 12.6905C57.57 13.0405 58.08 13.3305 58.7 13.5605C59.32 13.7905 59.965 13.9055 60.635 13.9055C61.245 13.9055 61.74 13.8355 62.12 13.6955C62.5 13.5555 62.78 13.3655 62.96 13.1255C63.14 12.8755 63.23 12.5955 63.23 12.2855C63.23 11.9255 63.11 11.6355 62.87 11.4155C62.64 11.1955 62.335 11.0205 61.955 10.8905C61.585 10.7505 61.175 10.6305 60.725 10.5305C60.275 10.4305 59.82 10.3155 59.36 10.1855C58.91 10.0455 58.495 9.87055 58.115 9.66055C57.745 9.45055 57.445 9.17055 57.215 8.82055C56.985 8.46055 56.87 8.00055 56.87 7.44055C56.87 6.90055 57.01 6.40555 57.29 5.95555C57.58 5.49555 58.02 5.13055 58.61 4.86055C59.21 4.58055 59.97 4.44055 60.89 4.44055C61.5 4.44055 62.105 4.52055 62.705 4.68055C63.305 4.84055 63.825 5.07055 64.265 5.37055L63.77 6.57055C63.32 6.27055 62.845 6.05555 62.345 5.92555C61.845 5.78555 61.36 5.71555 60.89 5.71555C60.3 5.71555 59.815 5.79055 59.435 5.94055C59.055 6.09055 58.775 6.29055 58.595 6.54055C58.425 6.79055 58.34 7.07055 58.34 7.38055C58.34 7.75055 58.455 8.04555 58.685 8.26555C58.925 8.48555 59.23 8.66055 59.6 8.79055C59.98 8.92055 60.395 9.04055 60.845 9.15055C61.295 9.25055 61.745 9.36555 62.195 9.49555C62.655 9.62555 63.07 9.79555 63.44 10.0055C63.82 10.2155 64.125 10.4955 64.355 10.8455C64.585 11.1955 64.7 11.6455 64.7 12.1955C64.7 12.7255 64.555 13.2205 64.265 13.6805C63.975 14.1305 63.525 14.4955 62.915 14.7755C62.315 15.0455 61.555 15.1805 60.635 15.1805ZM70.2214 15.1505C69.3714 15.1505 68.6214 14.9755 67.9714 14.6255C67.3314 14.2755 66.8314 13.7955 66.4714 13.1855C66.1214 12.5755 65.9464 11.8755 65.9464 11.0855C65.9464 10.2955 66.1164 9.59555 66.4564 8.98555C66.8064 8.37555 67.2814 7.90055 67.8814 7.56055C68.4914 7.21055 69.1764 7.03555 69.9364 7.03555C70.7064 7.03555 71.3864 7.20555 71.9764 7.54555C72.5664 7.88555 73.0264 8.36555 73.3564 8.98555C73.6964 9.59555 73.8664 10.3105 73.8664 11.1305C73.8664 11.1905 73.8614 11.2605 73.8514 11.3405C73.8514 11.4205 73.8464 11.4955 73.8364 11.5655H67.0714V10.5305H73.0864L72.5014 10.8905C72.5114 10.3805 72.4064 9.92555 72.1864 9.52555C71.9664 9.12555 71.6614 8.81555 71.2714 8.59555C70.8914 8.36555 70.4464 8.25055 69.9364 8.25055C69.4364 8.25055 68.9914 8.36555 68.6014 8.59555C68.2114 8.81555 67.9064 9.13055 67.6864 9.54055C67.4664 9.94055 67.3564 10.4005 67.3564 10.9205V11.1605C67.3564 11.6905 67.4764 12.1655 67.7164 12.5855C67.9664 12.9955 68.3114 13.3155 68.7514 13.5455C69.1914 13.7755 69.6964 13.8905 70.2664 13.8905C70.7364 13.8905 71.1614 13.8105 71.5414 13.6505C71.9314 13.4905 72.2714 13.2505 72.5614 12.9305L73.3564 13.8605C72.9964 14.2805 72.5464 14.6005 72.0064 14.8205C71.4764 15.0405 70.8814 15.1505 70.2214 15.1505ZM78.596 15.1505C77.796 15.1505 77.176 14.9355 76.736 14.5055C76.296 14.0755 76.076 13.4605 76.076 12.6605V5.37055H77.516V12.6005C77.516 13.0305 77.621 13.3605 77.831 13.5905C78.051 13.8205 78.361 13.9355 78.761 13.9355C79.211 13.9355 79.586 13.8105 79.886 13.5605L80.336 14.5955C80.116 14.7855 79.851 14.9255 79.541 15.0155C79.241 15.1055 78.926 15.1505 78.596 15.1505ZM74.726 8.29555V7.11055H79.796V8.29555H74.726ZM84.6165 15.1505C83.8165 15.1505 83.1965 14.9355 82.7565 14.5055C82.3165 14.0755 82.0965 13.4605 82.0965 12.6605V5.37055H83.5365V12.6005C83.5365 13.0305 83.6415 13.3605 83.8515 13.5905C84.0715 13.8205 84.3815 13.9355 84.7815 13.9355C85.2315 13.9355 85.6065 13.8105 85.9065 13.5605L86.3565 14.5955C86.1365 14.7855 85.8715 14.9255 85.5615 15.0155C85.2615 15.1055 84.9465 15.1505 84.6165 15.1505ZM80.7465 8.29555V7.11055H85.8165V8.29555H80.7465ZM88.0974 15.0605V7.11055H89.5374V15.0605H88.0974ZM88.8174 5.58055C88.5374 5.58055 88.3024 5.49055 88.1124 5.31055C87.9324 5.13055 87.8424 4.91055 87.8424 4.65055C87.8424 4.38055 87.9324 4.15555 88.1124 3.97555C88.3024 3.79555 88.5374 3.70555 88.8174 3.70555C89.0974 3.70555 89.3274 3.79555 89.5074 3.97555C89.6974 4.14555 89.7924 4.36055 89.7924 4.62055C89.7924 4.89055 89.7024 5.12055 89.5224 5.31055C89.3424 5.49055 89.1074 5.58055 88.8174 5.58055ZM96.5319 7.03555C97.1819 7.03555 97.7519 7.16055 98.2419 7.41055C98.7419 7.66055 99.1319 8.04055 99.4119 8.55055C99.6919 9.06055 99.8319 9.70555 99.8319 10.4855V15.0605H98.3919V10.6505C98.3919 9.88055 98.2019 9.30055 97.8219 8.91055C97.4519 8.52055 96.9269 8.32555 96.2469 8.32555C95.7369 8.32555 95.2919 8.42555 94.9119 8.62555C94.5319 8.82555 94.2369 9.12055 94.0269 9.51055C93.8269 9.90055 93.7269 10.3855 93.7269 10.9655V15.0605H92.2869V7.11055H93.6669V9.25555L93.4419 8.68555C93.7019 8.16555 94.1019 7.76055 94.6419 7.47055C95.1819 7.18055 95.8119 7.03555 96.5319 7.03555ZM105.977 18.0605C105.247 18.0605 104.537 17.9555 103.847 17.7455C103.167 17.5455 102.612 17.2555 102.182 16.8755L102.872 15.7655C103.242 16.0855 103.697 16.3355 104.237 16.5155C104.777 16.7055 105.342 16.8005 105.932 16.8005C106.872 16.8005 107.562 16.5805 108.002 16.1405C108.442 15.7005 108.662 15.0305 108.662 14.1305V12.4505L108.812 10.8755L108.737 9.28555V7.11055H110.102V13.9805C110.102 15.3805 109.752 16.4105 109.052 17.0705C108.352 17.7305 107.327 18.0605 105.977 18.0605ZM105.797 14.7305C105.027 14.7305 104.337 14.5705 103.727 14.2505C103.127 13.9205 102.647 13.4655 102.287 12.8855C101.937 12.3055 101.762 11.6355 101.762 10.8755C101.762 10.1055 101.937 9.43555 102.287 8.86555C102.647 8.28555 103.127 7.83555 103.727 7.51555C104.337 7.19555 105.027 7.03555 105.797 7.03555C106.477 7.03555 107.097 7.17555 107.657 7.45555C108.217 7.72555 108.662 8.14555 108.992 8.71555C109.332 9.28555 109.502 10.0055 109.502 10.8755C109.502 11.7355 109.332 12.4505 108.992 13.0205C108.662 13.5905 108.217 14.0205 107.657 14.3105C107.097 14.5905 106.477 14.7305 105.797 14.7305ZM105.962 13.4705C106.492 13.4705 106.962 13.3605 107.372 13.1405C107.782 12.9205 108.102 12.6155 108.332 12.2255C108.572 11.8355 108.692 11.3855 108.692 10.8755C108.692 10.3655 108.572 9.91555 108.332 9.52555C108.102 9.13555 107.782 8.83555 107.372 8.62555C106.962 8.40555 106.492 8.29555 105.962 8.29555C105.432 8.29555 104.957 8.40555 104.537 8.62555C104.127 8.83555 103.802 9.13555 103.562 9.52555C103.332 9.91555 103.217 10.3655 103.217 10.8755C103.217 11.3855 103.332 11.8355 103.562 12.2255C103.802 12.6155 104.127 12.9205 104.537 13.1405C104.957 13.3605 105.432 13.4705 105.962 13.4705ZM115.133 15.1505C114.473 15.1505 113.843 15.0605 113.243 14.8805C112.653 14.7005 112.188 14.4805 111.848 14.2205L112.448 13.0805C112.788 13.3105 113.208 13.5055 113.708 13.6655C114.208 13.8255 114.718 13.9055 115.238 13.9055C115.908 13.9055 116.388 13.8105 116.678 13.6205C116.978 13.4305 117.128 13.1655 117.128 12.8255C117.128 12.5755 117.038 12.3805 116.858 12.2405C116.678 12.1005 116.438 11.9955 116.138 11.9255C115.848 11.8555 115.523 11.7955 115.163 11.7455C114.803 11.6855 114.443 11.6155 114.083 11.5355C113.723 11.4455 113.393 11.3255 113.093 11.1755C112.793 11.0155 112.553 10.8005 112.373 10.5305C112.193 10.2505 112.103 9.88055 112.103 9.42055C112.103 8.94055 112.238 8.52055 112.508 8.16055C112.778 7.80055 113.158 7.52555 113.648 7.33555C114.148 7.13555 114.738 7.03555 115.418 7.03555C115.938 7.03555 116.463 7.10055 116.993 7.23055C117.533 7.35055 117.973 7.52555 118.313 7.75555L117.698 8.89555C117.338 8.65555 116.963 8.49055 116.573 8.40055C116.183 8.31055 115.793 8.26555 115.403 8.26555C114.773 8.26555 114.303 8.37055 113.993 8.58055C113.683 8.78055 113.528 9.04055 113.528 9.36055C113.528 9.63055 113.618 9.84055 113.798 9.99055C113.988 10.1305 114.228 10.2405 114.518 10.3205C114.818 10.4005 115.148 10.4705 115.508 10.5305C115.868 10.5805 116.228 10.6505 116.588 10.7405C116.948 10.8205 117.273 10.9355 117.563 11.0855C117.863 11.2355 118.103 11.4455 118.283 11.7155C118.473 11.9855 118.568 12.3455 118.568 12.7955C118.568 13.2755 118.428 13.6905 118.148 14.0405C117.868 14.3905 117.473 14.6655 116.963 14.8655C116.453 15.0555 115.843 15.1505 115.133 15.1505Z" fill="black"/>
</svg>
