<svg width="13" height="12" viewBox="0 0 13 12" fill="none" xmlns="http://www.w3.org/2000/svg">
<path d="M0.620483 6C0.620483 2.6865 3.28737 0 6.57669 0C9.866 0 12.5329 2.6865 12.5329 6C12.5329 9.3135 9.866 12 6.57669 12C3.28886 11.996 0.624454 9.312 0.620483 6.0005V6ZM1.81172 6C1.81172 8.651 3.94504 10.8 6.57669 10.8C9.20834 10.8 11.3417 8.651 11.3417 6C11.3417 3.349 9.20834 1.2 6.57669 1.2C3.94653 1.203 1.8147 3.3505 1.81172 5.9995V6ZM3.79713 6C3.79713 5.25739 4.08997 4.5452 4.61124 4.0201C5.13251 3.495 5.8395 3.2 6.57669 3.2C7.31387 3.2 8.02087 3.495 8.54214 4.0201C9.0634 4.5452 9.35625 5.25739 9.35625 6C9.35625 6.74261 9.0634 7.4548 8.54214 7.9799C8.02087 8.505 7.31387 8.8 6.57669 8.8C5.8395 8.8 5.13251 8.505 4.61124 7.9799C4.08997 7.4548 3.79713 6.74261 3.79713 6Z" fill="#21EE21"/>
</svg>
